<svg width="32" height="40" viewBox="0 0 32 40" fill="none" xmlns="http://www.w3.org/2000/svg">
<path d="M30.7656 19.1406C31.1562 20.1562 30.9219 21.25 30.0625 21.9531L10.1406 39.4531C9.67188 39.8438 9.04688 40 8.5 40C7.95312 40 7.40625 39.8438 6.9375 39.5312C6 38.75 5.6875 37.5 6.23438 36.4062L13.1875 22.5H3.5C2.40625 22.5 1.46875 21.875 1.15625 20.9375C0.765625 19.9219 1 18.8281 1.78125 18.125L21.7812 0.625C22.25 0.234375 22.7969 0 23.4219 0C23.9688 0 24.5156 0.234375 24.9062 0.546875C25.8438 1.32812 26.1562 2.57812 25.6094 3.67188L18.6562 17.5781H28.4219C29.4375 17.5781 30.375 18.2031 30.7656 19.1406ZM8.5 37.5L28.4219 20.0781H18.6562C17.7969 20.0781 17.0156 19.6094 16.5469 18.8281C16.0781 18.125 16.0781 17.1875 16.4688 16.4062L23.4219 2.5L3.5 20H13.1875C14.0469 20 14.8281 20.3906 15.2969 21.1719C15.7656 21.875 15.7656 22.8125 15.375 23.5938L8.5 37.5Z" fill="white"/>
</svg>
