<svg width="32" height="32" viewBox="0 0 32 32" fill="none" xmlns="http://www.w3.org/2000/svg">
<path d="M26 26V16H24.9375C24.4375 16 24 15.4375 24 15C24 14.5 24.4375 14 25 14H27C27.5 14 28 14.5 28 15V27C28 27.5625 27.5 28 27 28H15C14.4375 28 14 27.5625 14 27V25C14 24.5 14.4375 24 15 24C15.5 24 16 24.5 16 25V26H26ZM22 18C22 20.25 20.1875 22 18 22H4C1.75 22 0 20.25 0 18V4C0 1.8125 1.75 0 4 0H18C20.1875 0 22 1.8125 22 4V18ZM2 18C2 19.125 2.875 20 4 20H18C19.0625 20 20 19.125 20 18V4C20 2.9375 19.0625 2 18 2H4C2.875 2 2 2.9375 2 4V18ZM28 10C30.1875 10 32 11.8125 32 14V28C32 30.25 30.1875 32 28 32H14C11.75 32 10 30.25 10 28V25C10 24.5 10.4375 24 11 24C11.5 24 12 24.5 12 25V28C12 29.125 12.875 30 14 30H28C29.0625 30 30 29.125 30 28V14C30 12.9375 29.0625 12 28 12H24.9375C24.4375 12 24 11.4375 24 11C24 10.5 24.4375 10 25 10H28Z" fill="white"/>
</svg>
