<svg width="30" height="41" viewBox="0 0 30 41" fill="none" xmlns="http://www.w3.org/2000/svg">
<path d="M25 0C27.7344 0 30 2.26562 30 5V22.5C30 26.7188 26.6406 30 22.5 30H20V35C20 38.0469 17.2656 40.4688 14.1406 40C11.6406 39.6094 10 37.2656 10 34.7656V30H7.5C3.28125 30 0 26.7188 0 22.5V5C0 2.26562 2.1875 0 5 0H25ZM22.5 27.5C25.2344 27.5 27.5 25.3125 27.5 22.5H2.5C2.5 25.3125 4.6875 27.5 7.5 27.5H12.5V35C12.5 36.4062 13.5938 37.5 15 37.5C16.3281 37.5 17.5 36.4062 17.5 35V27.5H22.5ZM27.5 20V5C27.5 3.67188 26.3281 2.5 25 2.5H17.5V8.75C17.5 9.45312 16.875 10 16.25 10C15.5469 10 15 9.45312 15 8.75V2.5H10V11.25C10 11.9531 9.375 12.5 8.75 12.5C8.04688 12.5 7.5 11.9531 7.5 11.25V2.5H5C3.59375 2.5 2.5 3.67188 2.5 5V20H27.5Z" fill="white"/>
</svg>
