<svg width="212" height="57" viewBox="0 0 212 57" fill="none" xmlns="http://www.w3.org/2000/svg">
<path fill-rule="evenodd" clip-rule="evenodd" d="M28.3333 0H85V56.6667H28.3333V0ZM47.8125 19.4792H65.5208V37.1876H47.8125V19.4792ZM19.4792 37.1875H0V56.6667H19.4792V37.1875Z" fill="white"/>
<path d="M180.704 42.0752C181.315 42.4299 181.811 43.2969 181.811 44.0031V56.2058C181.811 56.9155 181.312 57.2016 180.704 56.8494L170.198 50.7541C169.587 50.3991 169.091 49.5324 169.091 48.8262V36.6235C169.091 35.9138 169.59 35.6277 170.198 35.9799L180.704 42.0749L180.704 42.0752ZM196.911 31.3105C196.911 32.0202 196.412 32.8843 195.803 33.2383L185.292 39.3361C184.681 39.6911 184.185 39.3998 184.185 38.6936V26.4944C184.185 25.7847 184.684 24.9202 185.292 24.5662L195.803 18.4684C196.415 18.1137 196.911 18.4048 196.911 19.1109L196.91 31.3112L196.911 31.3105ZM194.602 15.114C195.224 15.4744 195.228 16.0561 194.62 16.4093L184.103 22.5097C183.491 22.8647 182.49 22.8583 181.871 22.4989L156.301 7.66468C155.679 7.30428 155.675 6.72256 156.284 6.36967L166.802 0.268288C167.414 -0.0863893 168.415 -0.0803111 169.034 0.279015L194.602 15.1161L194.601 15.1151L194.602 15.1143L194.602 15.114ZM166.717 47.4426C166.717 48.1541 166.218 48.4408 165.611 48.0879L155.105 41.993C154.494 41.6379 154 40.7638 154 40.0462V10.3741C154 9.65295 154.507 9.36227 155.125 9.72159L180.688 24.5516C181.31 24.9116 181.813 25.7833 181.813 26.4894V38.6911C181.813 39.4008 181.31 39.6851 180.703 39.3322L167.827 31.8639C167.214 31.5089 166.717 31.8031 166.717 32.5075V47.4411L166.717 47.4419V47.4426ZM199.276 17.7408C199.276 17.0293 199.775 16.1641 200.383 15.8112L210.893 9.71337C211.504 9.35869 212 9.65902 212 10.3766V40.0487C212 40.7698 211.493 41.6487 210.875 42.0062L185.312 56.8358C184.69 57.1962 184.187 56.9102 184.187 56.204V44.0013C184.187 43.2916 184.689 42.4245 185.297 42.0724L198.166 34.607C198.778 34.2519 199.276 33.3806 199.276 32.6752L199.277 17.7397V17.7405H199.276L199.276 17.7408ZM186.472 7.6493C185.86 7.29463 185.864 6.71792 186.472 6.36395L196.987 0.265071C197.598 -0.0896071 198.593 -0.0871044 199.201 0.265071L209.716 6.36574C210.327 6.72042 210.324 7.29713 209.716 7.65109L199.202 13.7514C198.591 14.1061 197.596 14.1036 196.987 13.7514L186.473 7.65002H186.472V7.6493Z" fill="white"/>
</svg>
