<svg width="50" height="40" viewBox="0 0 50 40" fill="none" xmlns="http://www.w3.org/2000/svg">
<path d="M5 18.75C7.1875 18.75 10 20.5469 10 23.75C10 26.5625 7.73438 28.75 5 28.75C2.1875 28.75 0 26.5625 0 23.75C0 20.4688 2.73438 18.75 5 18.75ZM5 26.25C6.32812 26.25 7.5 25.1562 7.5 23.75C7.5 22.4219 6.32812 21.25 5 21.25C3.59375 21.25 2.5 22.4219 2.5 23.75C2.5 25.1562 3.59375 26.25 5 26.25ZM14.375 22.5C15 22.5 15.625 23.125 15.625 23.75C15.625 24.4531 15 25 14.2969 25H13.0469C12.4219 25 11.875 24.2969 11.875 23.75C11.875 23.125 12.4219 22.5 13.0469 22.5H14.375ZM45 15C42.1875 15 40 12.8125 40 10C40 6.71875 42.7344 5 45 5C47.1875 5 50 6.71875 50 10C50 13.3594 47.1875 15 45 15ZM45 7.5C43.5938 7.5 42.5 8.67188 42.5 10C42.5 11.4062 43.5938 12.5 45 12.5C46.3281 12.5 47.5 11.4062 47.5 10C47.5 8.67188 46.3281 7.5 45 7.5ZM45 30C48.2812 30 50 32.8906 50 35C50 37.2656 48.2812 40 45 40C42.1875 40 40 37.8125 40 35C40 34.5312 40.0781 34.0625 40.1562 33.5938L32.9688 29.2969C31.3281 31.25 28.9844 32.5 26.25 32.5C21.4062 32.5 17.5 28.5938 17.5 23.75C17.5 20.7031 19.0625 18.0469 21.4062 16.4844L18.3594 9.92188C18.0469 10 17.8125 10 17.5 10C14.6875 10 12.5 7.8125 12.5 5C12.5 2.8125 14.2188 0 17.5 0C19.6875 0 22.5 1.79688 22.5 5C22.5 6.5625 21.7188 7.96875 20.625 8.90625L23.6719 15.4688C24.5312 15.2344 25.3125 15 26.25 15C31.0156 15 35 18.9844 35 23.75C35 25 34.6875 26.0938 34.2969 27.1875L41.4844 31.4844C41.6406 31.25 41.875 31.0938 42.1875 30.8594C42.9688 30.3125 43.9062 30 45 30ZM17.5 7.5C18.8281 7.5 20 6.40625 20 5C20 3.67188 18.8281 2.5 17.5 2.5C16.0938 2.5 15 3.67188 15 5C15 6.40625 16.0938 7.5 17.5 7.5ZM26.25 30C29.6875 30 32.5 27.2656 32.5 23.75C32.5 20.3125 29.6875 17.5 26.25 17.5C22.7344 17.5 20 20.3125 20 23.75C20 27.2656 22.7344 30 26.25 30ZM45 37.5C46.3281 37.5 47.5 36.4062 47.5 35C47.5 33.6719 46.3281 32.5 45 32.5C43.5938 32.5 42.5 33.6719 42.5 35C42.5 36.4062 43.5938 37.5 45 37.5ZM37.3438 17.9688C36.7969 18.3594 36.0156 18.2812 35.625 17.7344C35.1562 17.1094 35.3125 16.3281 35.8594 15.9375L37.5781 14.6094C38.125 14.2188 38.9062 14.2969 39.375 14.8438C39.7656 15.4688 39.6094 16.25 39.0625 16.6406L37.3438 17.9688Z" fill="white"/>
</svg>
