<svg width="32" height="28" viewBox="0 0 32 28" fill="none" xmlns="http://www.w3.org/2000/svg">
<path d="M1 2C0.4375 2 0 1.5625 0 1C0 0.5 0.4375 0 1 0H31C31.5 0 32 0.5 32 1C32 1.5625 31.5 2 31 2H1ZM31 26C31.5 26 32 26.5 32 27C32 27.5625 31.5 28 31 28H1C0.4375 28 0 27.5625 0 27C0 26.5 0.4375 26 1 26H31ZM9 8H23C24.625 8 26 9.375 26 11V17C26 18.6875 24.625 20 23 20H9C7.3125 20 6 18.6875 6 17V11C6 9.375 7.3125 8 9 8ZM24 11C24 10.5 23.5 10 23 10H9C8.4375 10 8 10.5 8 11V17C8 17.5625 8.4375 18 9 18H23C23.5 18 24 17.5625 24 17V11Z" fill="white"/>
</svg>
