<svg width="28" height="28" viewBox="0 0 28 28" fill="none" xmlns="http://www.w3.org/2000/svg">
<path d="M9.31452 22.0161C9.31452 22.129 9.20161 22.1855 9.03226 22.1855C8.8629 22.2419 8.75 22.129 8.75 22.0161C8.75 21.9032 8.8629 21.7903 9.03226 21.7903C9.20161 21.7903 9.31452 21.9032 9.31452 22.0161ZM7.56452 21.7339C7.62097 21.621 7.79032 21.5645 7.95968 21.621C8.12903 21.6774 8.18548 21.7903 8.18548 21.9032C8.12903 22.0161 7.95968 22.0726 7.84677 22.0161C7.67742 22.0161 7.56452 21.8468 7.56452 21.7339ZM10.1048 21.6774C10.2177 21.621 10.3871 21.7339 10.3871 21.8468C10.4435 21.9597 10.3306 22.0161 10.1613 22.0726C9.99193 22.129 9.82258 22.0726 9.82258 21.9597C9.82258 21.7903 9.93548 21.6774 10.1048 21.6774ZM13.7742 0C21.621 0 28 5.98387 28 13.7742C28 20.0403 24.1613 25.4032 18.5161 27.2661C17.7823 27.4355 17.5 26.9839 17.5 26.5887C17.5 26.1371 17.5565 23.7661 17.5565 21.9032C17.5565 20.5484 17.1048 19.7016 16.5968 19.25C19.7581 18.9113 23.0887 18.4597 23.0887 13.0403C23.0887 11.4597 22.5242 10.7258 21.621 9.70968C21.7339 9.31452 22.2419 7.84677 21.4516 5.87097C20.2661 5.47581 17.5565 7.39516 17.5565 7.39516C16.4274 7.05645 15.2419 6.94355 14 6.94355C12.8145 6.94355 11.629 7.05645 10.5 7.39516C10.5 7.39516 7.73387 5.53226 6.60484 5.87097C5.81452 7.84677 6.26613 9.31452 6.43548 9.70968C5.53226 10.7258 5.08065 11.4597 5.08065 13.0403C5.08065 18.4597 8.29839 18.9113 11.4597 19.25C11.0081 19.6452 10.6694 20.2661 10.5565 21.1694C9.70968 21.5645 7.67742 22.1855 6.43548 19.9839C5.64516 18.629 4.23387 18.5161 4.23387 18.5161C2.87903 18.5161 4.17742 19.4194 4.17742 19.4194C5.08065 19.8145 5.70161 21.4516 5.70161 21.4516C6.54839 23.9919 10.5 23.1452 10.5 23.1452C10.5 24.3306 10.5 26.25 10.5 26.6452C10.5 26.9839 10.2742 27.4355 9.54032 27.3226C3.89516 25.4032 0 20.0403 0 13.7742C0 5.98387 5.98387 0 13.7742 0ZM5.47581 19.4758C5.53226 19.4194 5.64516 19.4758 5.75806 19.5323C5.87097 19.6452 5.87097 19.8145 5.81452 19.871C5.70161 19.9274 5.58871 19.871 5.47581 19.8145C5.41935 19.7016 5.3629 19.5323 5.47581 19.4758ZM4.85484 19.0242C4.91129 18.9677 4.96774 18.9677 5.08065 19.0242C5.19355 19.0806 5.25 19.1371 5.25 19.1935C5.19355 19.3065 5.08065 19.3065 4.96774 19.25C4.85484 19.1935 4.79839 19.1371 4.85484 19.0242ZM6.66129 21.0565C6.77419 20.9435 6.94355 21 7.05645 21.1129C7.16935 21.2258 7.16935 21.3952 7.1129 21.4516C7.05645 21.5645 6.8871 21.5081 6.77419 21.3952C6.60484 21.2823 6.60484 21.1129 6.66129 21.0565ZM6.04032 20.2097C6.15323 20.1532 6.26613 20.2097 6.37903 20.3226C6.43548 20.4355 6.43548 20.6048 6.37903 20.6613C6.26613 20.7177 6.15323 20.6613 6.04032 20.5484C5.92742 20.4355 5.92742 20.2661 6.04032 20.2097Z" fill="white"/>
</svg>
