<svg width="35" height="36" viewBox="0 0 35 36" fill="none" xmlns="http://www.w3.org/2000/svg">
<path d="M7.5 9.875C6.40625 9.875 5.625 9.09375 5.625 8C5.625 6.98438 6.40625 6.125 7.5 6.125C8.51562 6.125 9.375 6.98438 9.375 8C9.375 9.09375 8.51562 9.875 7.5 9.875ZM22.0312 8.9375L29.5312 19.4062C30.0781 20.1875 30.0781 21.125 29.6875 21.8281C29.2188 22.6094 28.4375 23 27.5781 23H7.34375C6.48438 23 5.625 22.5312 5.23438 21.8281C4.84375 21.0469 4.92188 20.0312 5.46875 19.3281L10.3906 13.0781C11.25 11.9062 13.2812 11.9062 14.1406 13.0781L14.6875 13.7812L18.2031 8.9375C19.0625 7.6875 21.1719 7.76562 22.0312 8.9375ZM7.65625 20.5H27.2656L20 10.4219L15.7812 16.5938C15.1562 17.4531 14.0625 17.0625 13.75 16.5938L12.1875 14.6406L7.65625 20.5ZM30 0.5C32.7344 0.5 35 2.76562 35 5.5V30.5C35 33.3125 32.7344 35.5 30 35.5H5C2.1875 35.5 0 33.3125 0 30.5V5.5C0 2.76562 2.1875 0.5 5 0.5H30ZM32.5 30.5V28H2.5V30.5C2.5 31.9062 3.59375 33 5 33H30C31.3281 33 32.5 31.9062 32.5 30.5ZM32.5 25.5V5.5C32.5 4.17188 31.3281 3 30 3H5C3.59375 3 2.5 4.17188 2.5 5.5V25.5H32.5Z" fill="white"/>
</svg>
