<svg width="224" height="40" viewBox="0 0 224 40" fill="none" xmlns="http://www.w3.org/2000/svg">
<g clip-path="url(#clip0_201_24)">
<path d="M58.6414 31.0067L53.6665 40H63.5596L68.5345 31.0067H58.6414Z" fill="white"/>
<path d="M58.633 29.4431H68.5332L58.3966 11.1573L53.29 20.1423L58.633 29.4431Z" fill="white"/>
<path d="M52.3932 21.7203L47.4834 30.3591L52.3405 39.1667L57.283 30.2321L52.3932 21.7203Z" fill="white"/>
<path d="M30.3062 40H40.2054L45.3166 31.0067H35.2811L30.3062 40Z" fill="white"/>
<path d="M28.8023 21.5158L23.8096 30.2373C25.2403 32.8866 27.7457 37.1577 28.9572 39.2088L33.9206 30.2363L28.8023 21.5158Z" fill="white"/>
<path d="M57.0792 8.77826L57.0579 8.76574L52.1086 0.00959089H42.2106L42.1943 0L46.9652 8.77826H57.0792Z" fill="white"/>
<path d="M45.4857 9.33025L40.758 0.631317L35.5093 9.79994L40.4927 18.3562L45.4857 9.33025Z" fill="white"/>
<path d="M46.713 10.3419L41.4092 19.9297L46.5732 28.7963L57.0616 10.3419H46.713Z" fill="white"/>
<path d="M35.2679 29.4431H45.1402L34.6015 11.3481L29.6865 19.9339L35.2679 29.4431Z" fill="white"/>
<path d="M23.0225 10.5666L6.50586 40H16.3974L33.247 10.5666H23.0225Z" fill="white"/>
<path d="M16.7706 0.941864L0 30.2373C1.43307 32.8902 3.94285 37.1692 5.1526 39.217L21.6218 9.86805L16.7706 0.941864Z" fill="white"/>
<path d="M33.2694 9.00291L28.2945 0.00958252H18.0435L22.9312 9.00291H33.2694Z" fill="white"/>
</g>
<path d="M93.635 13.22C95.69 13.22 96.995 14.57 96.995 17.795V29H93.32V18.155C93.32 17.225 92.99 16.76 92.225 16.76C91.7 16.76 91.265 16.97 90.965 17.51V17.795V29H87.26V18.155C87.26 17.21 86.96 16.76 86.21 16.76C85.625 16.76 85.175 17.03 84.89 17.615V29H81.215V13.58H84.485L84.56 15.125C85.04 13.985 86.09 13.22 87.62 13.22C89 13.22 90.02 13.82 90.545 15.14C91.04 14 92.09 13.22 93.635 13.22ZM106.808 11.54C105.188 11.54 104.048 10.13 104.048 8.78C104.048 7.58 105.188 6.23 106.808 6.23C108.428 6.23 109.568 7.58 109.568 8.78C109.568 10.13 108.428 11.54 106.808 11.54ZM113.948 29H100.028V25.43H104.873V17.3H100.028V13.58H109.118V25.43H113.948V29ZM125.037 29.36C120.282 29.36 117.147 25.625 117.147 21.26C117.147 16.91 120.222 13.22 125.037 13.22C128.607 13.22 131.442 15.14 132.402 19.43L128.442 20.255C128.007 18.035 126.732 17.06 125.037 17.06C122.817 17.06 121.437 18.77 121.437 21.26C121.437 23.795 122.787 25.475 125.037 25.475C126.792 25.475 128.037 24.545 128.472 22.22L132.402 23.12C131.577 27.155 128.622 29.36 125.037 29.36ZM150.33 17.285H146.04C144 17.285 143.07 18.245 143.07 20.21V25.43H149.01V29H135.405V25.43H138.84V17.285H135.405V13.58H142.425L142.545 15.89C143.25 14.18 145.11 13.445 147.3 13.445H150.33V17.285ZM160.953 29.36C156.348 29.36 152.973 26.09 152.973 21.29C152.973 16.49 156.348 13.22 160.953 13.22C165.558 13.22 168.933 16.49 168.933 21.29C168.933 26.09 165.558 29.36 160.953 29.36ZM160.953 25.49C163.248 25.49 164.643 23.99 164.643 21.29C164.643 18.59 163.248 17.09 160.953 17.09C158.658 17.09 157.263 18.59 157.263 21.29C157.263 23.99 158.658 25.49 160.953 25.49ZM181.731 14.705V13.58H185.541V28.385C185.541 32.96 182.616 35 178.266 35C175.581 35 173.076 34.13 171.126 32.015L173.706 29.27C175.131 30.8 176.346 31.415 178.266 31.415C180.066 31.415 181.311 30.755 181.311 28.385V27.665C180.456 28.415 179.376 28.76 178.056 28.76C174.126 28.76 171.051 25.64 171.051 20.99C171.051 16.34 174.126 13.22 178.056 13.22C179.571 13.22 180.801 13.685 181.731 14.705ZM178.776 24.935C179.871 24.935 180.651 24.605 181.311 23.975V18.005C180.651 17.375 179.871 17.06 178.776 17.06C176.736 17.06 175.206 18.305 175.206 20.99C175.206 23.675 176.736 24.935 178.776 24.935ZM197.14 13.22C202.585 13.22 204.865 17.525 204.4 22.55H193.66C194.005 24.98 195.355 25.94 197.29 25.94C198.58 25.94 199.72 25.325 200.425 23.9L203.905 25.13C202.66 27.995 200.425 29.375 197.29 29.375C192.355 29.375 189.415 25.94 189.415 21.155C189.415 16.61 192.4 13.22 197.14 13.22ZM197.08 16.67C195.19 16.67 194.05 17.675 193.69 19.685H200.17C199.975 17.645 198.91 16.67 197.08 16.67ZM216.313 13.22C219.988 13.22 221.968 15.335 221.968 19.775V29H217.738V19.97C217.738 17.885 216.853 17.105 215.158 17.105C213.958 17.105 212.788 17.675 212.098 18.785V29H207.868V13.58H211.618L211.663 15.47C212.818 13.82 214.498 13.22 216.313 13.22Z" fill="white"/>
<defs>
<clipPath id="clip0_201_24">
<rect width="68.5344" height="40" fill="white"/>
</clipPath>
</defs>
</svg>
