<svg width="26" height="40" viewBox="0 0 26 40" fill="none" xmlns="http://www.w3.org/2000/svg">
<path d="M20.5 0C23.2344 0 25.5 2.26562 25.5 5V35C25.5 37.8125 23.2344 40 20.5 40H5.5C2.6875 40 0.5 37.8125 0.5 35V5C0.5 2.26562 2.6875 0 5.5 0H20.5ZM23 35V5C23 3.67188 21.8281 2.5 20.5 2.5H5.5C4.09375 2.5 3 3.67188 3 5V35C3 36.4062 4.09375 37.5 5.5 37.5H20.5C21.8281 37.5 23 36.4062 23 35ZM15.5 31.25C16.125 31.25 16.75 31.875 16.75 32.5C16.75 33.2031 16.125 33.75 15.5 33.75H10.5C9.79688 33.75 9.25 33.2031 9.25 32.5C9.25 31.875 9.79688 31.25 10.5 31.25H15.5Z" fill="white"/>
</svg>
