<svg width="64" height="64" viewBox="0 0 64 64" fill="none" xmlns="http://www.w3.org/2000/svg">
<path fill-rule="evenodd" clip-rule="evenodd" d="M33.879 17.4688L41.563 13.0912C41.7662 12.9696 42.0102 12.9696 42.2134 13.0912L49.9782 17.5096C50.1814 17.6312 50.1814 17.9552 49.9782 18.0768L42.2942 22.4544C42.091 22.576 41.847 22.576 41.6438 22.4544L33.879 18.036C33.6758 17.9144 33.6758 17.5904 33.879 17.4688Z" fill="black"/>
<path fill-rule="evenodd" clip-rule="evenodd" d="M13.4727 17.4695L21.0751 13.0919C21.2783 13.011 21.5223 13.011 21.7663 13.0919L39.7767 23.3471C39.9799 23.4687 39.9799 23.7927 39.7767 23.9143L32.1335 28.2919C31.9303 28.4135 31.6863 28.4135 31.4831 28.2919L13.4727 18.0367C13.2695 17.9151 13.2695 17.5911 13.4727 17.4695Z" fill="black"/>
<path fill-rule="evenodd" clip-rule="evenodd" d="M32.5391 30.5613V39.3974C32.5391 39.6406 32.8239 39.8021 33.0271 39.6813L40.8327 35.2229C40.9143 35.1821 40.9951 35.0605 40.9951 34.9389V25.9405C40.9951 25.6973 40.7103 25.5349 40.5071 25.6565L32.8639 29.9933C32.6607 30.1149 32.5391 30.3173 32.5391 30.5605V30.5613Z" fill="black"/>
<path fill-rule="evenodd" clip-rule="evenodd" d="M50.7111 19.8206L43.0679 24.1574C42.8647 24.279 42.7431 24.4814 42.7023 24.7246L42.7431 35.7094C42.7431 35.9526 42.6207 36.155 42.4183 36.2766L32.8639 41.7486C32.6607 41.8702 32.5391 42.0726 32.5391 42.3158V51.1518C32.5391 51.395 32.8239 51.5574 33.0271 51.4358L50.8743 41.2622C51.0775 41.1406 51.1999 40.9382 51.1999 40.695V20.1046C51.1999 19.8614 50.9151 19.699 50.7119 19.8206H50.7111Z" fill="black"/>
<path fill-rule="evenodd" clip-rule="evenodd" d="M30.8248 30.5197L30.784 39.5182C30.784 39.7206 30.5808 39.8022 30.4176 39.7206L20.9856 34.3294C20.7824 34.2078 20.4976 34.3702 20.4976 34.6134V45.2326C20.4976 45.4757 20.2128 45.6381 20.0096 45.5166L12.3256 41.139C12.1224 41.0174 12 40.815 12 40.5718V19.9405C12 19.6973 12.2848 19.5349 12.488 19.6565L30.4984 29.9118C30.6608 30.0742 30.824 30.2765 30.824 30.5197H30.8248Z" fill="black"/>
<path fill-rule="evenodd" clip-rule="evenodd" d="M30.4628 41.7485L22.738 37.3301C22.5348 37.1677 22.25 37.3301 22.25 37.6141V46.4909C22.25 46.7341 22.3724 46.9365 22.5748 47.0589L30.2996 51.4765C30.5028 51.5981 30.7876 51.4357 30.7876 51.1925V42.3157C30.7876 42.0725 30.6652 41.8701 30.462 41.7485H30.4628Z" fill="black"/>
</svg>
