<svg width="48" height="48" viewBox="0 0 48 48" fill="none" xmlns="http://www.w3.org/2000/svg">
<path d="M48 24.378C48 21.198 44.018 18.1847 37.9127 16.3159C39.3216 10.0933 38.6955 5.14258 35.9364 3.55769C35.3004 3.18578 34.5568 3.00978 33.7449 3.00978V5.19164C34.1948 5.19164 34.5568 5.27964 34.8601 5.44587C36.1908 6.20907 36.768 9.11485 36.318 12.8524C36.2103 13.7721 36.0343 14.7406 35.819 15.7289C33.9013 15.2592 31.8076 14.8972 29.6062 14.6624C28.2853 12.8524 26.9156 11.2087 25.536 9.77049C28.7257 6.80587 31.7195 5.18187 33.7547 5.18187V3C31.064 3 27.5419 4.91769 23.9804 8.24409C20.419 4.93724 16.8969 3.03911 14.2062 3.03911V5.22098C16.2315 5.22098 19.2352 6.8352 22.4247 9.78027C21.0551 11.2185 19.6853 12.8524 18.384 14.6624C16.1728 14.8972 14.0791 15.2592 12.1614 15.7387C11.9364 14.7602 11.7701 13.8112 11.6526 12.9013C11.1929 9.16391 11.7604 6.25796 13.0811 5.48515C13.3746 5.30898 13.7563 5.23076 14.2062 5.23076V3.04889C13.3844 3.04889 12.6409 3.22507 11.995 3.5968C9.24587 5.18187 8.62951 10.1227 10.0482 16.3257C3.96249 18.2043 0 21.2078 0 24.378C0 27.5577 3.98204 30.571 10.0873 32.4398C8.6784 38.6624 9.30453 43.6132 12.0636 45.198C12.6996 45.57 13.4432 45.746 14.2651 45.746C16.9556 45.746 20.4779 43.8283 24.0391 40.5019C27.6005 43.8087 31.1227 45.7068 33.8133 45.7068C34.6352 45.7068 35.3787 45.5307 36.0245 45.1589C38.7737 43.574 39.3902 38.6331 37.9714 32.43C44.0375 30.5612 48 27.5479 48 24.378ZM35.2613 17.8519C34.8994 19.1141 34.4492 20.4153 33.9404 21.7166C33.5394 20.9339 33.1186 20.1513 32.6588 19.3685C32.2087 18.5858 31.7292 17.8226 31.25 17.0791C32.6393 17.2844 33.9796 17.5388 35.2613 17.8519ZM30.7803 28.2718C30.0171 29.5927 29.2345 30.845 28.4224 32.0094C26.9644 32.1365 25.4871 32.205 24 32.205C22.5227 32.205 21.0453 32.1365 19.5972 32.0192C18.7852 30.8548 17.9927 29.6123 17.2295 28.3012C16.4859 27.0196 15.8108 25.7182 15.1945 24.4073C15.8011 23.0962 16.4859 21.7851 17.2197 20.5035C17.9829 19.1826 18.7655 17.9303 19.5776 16.766C21.0356 16.6388 22.5129 16.5703 24 16.5703C25.4773 16.5703 26.9547 16.6388 28.4028 16.7563C29.2148 17.9205 30.0073 19.163 30.7705 20.4741C31.5141 21.7557 32.1892 23.0571 32.8055 24.368C32.1892 25.6791 31.5141 26.9902 30.7803 28.2718ZM33.9404 27C34.4688 28.3109 34.9189 29.622 35.2907 30.894C34.0089 31.2071 32.6588 31.4713 31.2597 31.6766C31.739 30.9234 32.2185 30.1504 32.6686 29.3579C33.1186 28.5751 33.5394 27.7828 33.9404 27ZM24.0196 37.4395C23.1097 36.5001 22.1998 35.4533 21.2996 34.3086C22.1803 34.3477 23.0804 34.3771 23.9902 34.3771C24.9099 34.3771 25.8197 34.3575 26.7102 34.3086C25.8295 35.4533 24.9196 36.5001 24.0196 37.4395ZM16.7403 31.6766C15.3509 31.4713 14.0107 31.2169 12.7289 30.9038C13.0908 29.6416 13.541 28.3404 14.0498 27.0391C14.4508 27.8219 14.8716 28.6044 15.3314 29.3872C15.7913 30.17 16.261 30.9332 16.7403 31.6766ZM23.9707 11.3163C24.8805 12.2556 25.7904 13.3024 26.6907 14.4471C25.81 14.408 24.9099 14.3787 24 14.3787C23.0804 14.3787 22.1705 14.3982 21.28 14.4471C22.1605 13.3024 23.0706 12.2556 23.9707 11.3163ZM16.7305 17.0791C16.2512 17.8324 15.7717 18.6053 15.3216 19.3979C14.8716 20.1806 14.4508 20.9632 14.0498 21.746C13.5214 20.435 13.0713 19.1239 12.6996 17.8519C13.9813 17.5486 15.3314 17.2844 16.7305 17.0791ZM7.87609 29.3285C4.41262 27.8512 2.17209 25.914 2.17209 24.378C2.17209 22.8418 4.41262 20.8948 7.87609 19.4272C8.71751 19.0652 9.63716 18.7424 10.5861 18.4389C11.1438 20.3566 11.8777 22.3525 12.7876 24.3975C11.8875 26.4325 11.1636 28.4187 10.6156 30.3266C9.64693 30.0233 8.72729 29.6905 7.87609 29.3285ZM13.1399 43.3099C11.8092 42.5467 11.232 39.6409 11.682 35.9033C11.7897 34.9836 11.9657 34.0151 12.181 33.0268C14.0987 33.4965 16.1924 33.8585 18.3938 34.0933C19.7147 35.9033 21.0844 37.547 22.464 38.9852C19.2743 41.9499 16.2805 43.574 14.2453 43.574C13.8052 43.5641 13.4334 43.4761 13.1399 43.3099ZM36.3474 35.8544C36.8071 39.5918 36.2396 42.4978 34.9189 43.2706C34.6254 43.4468 34.2437 43.525 33.7938 43.525C31.7685 43.525 28.7648 41.9108 25.5753 38.9657C26.9449 37.5275 28.3147 35.8935 29.616 34.0836C31.8272 33.8487 33.9209 33.4868 35.8386 33.0073C36.0636 33.9956 36.2396 34.9445 36.3474 35.8544ZM40.1141 29.3285C39.2727 29.6905 38.3531 30.0133 37.4039 30.3168C36.8462 28.3991 36.1125 26.4032 35.2027 24.3582C36.1028 22.3232 36.8267 20.3371 37.3746 18.4292C38.3433 18.7326 39.2629 19.0652 40.1239 19.4272C43.5874 20.9045 45.8279 22.8418 45.8279 24.378C45.8181 25.914 43.5776 27.861 40.1141 29.3285Z" fill="white"/>
<path d="M23.9903 28.8492C26.4598 28.8492 28.4616 26.8473 28.4616 24.3779C28.4616 21.9085 26.4598 19.9066 23.9903 19.9066C21.5209 19.9066 19.519 21.9085 19.519 24.3779C19.519 26.8473 21.5209 28.8492 23.9903 28.8492Z" fill="white"/>
</svg>
