<svg width="36" height="33" viewBox="0 0 36 33" fill="none" xmlns="http://www.w3.org/2000/svg">
<path d="M33 10.75C34.625 11 35.3125 13 34.125 14.25L27.5 20.625L29.0625 29.6875C29.25 31 28.25 32.0625 27.0625 32.0625C26.75 32.0625 26.4375 31.9375 26.125 31.8125L18 27.5L9.8125 31.8125C9.5 31.9375 9.1875 32 8.875 32C7.6875 32 6.6875 31 6.875 29.6875L8.4375 20.5625L1.8125 14.1875C0.625 13 1.3125 11 2.9375 10.75L12.0625 9.4375L16.1875 1.125C16.5625 0.375 17.25 0 17.9375 0C18.6875 0 19.375 0.375 19.75 1.125L23.875 9.4375L33 10.75ZM25.4375 20.4375C25.375 20.0625 25.5 19.75 25.75 19.5625L32.6875 12.75L23.0625 11.3125C22.75 11.25 22.4375 11.0625 22.3125 10.75L18 2L13.625 10.75C13.5 11.0625 13.1875 11.25 12.875 11.3125L3.25 12.75L10.625 19.875L8.875 30L17.5 25.5C17.8125 25.3125 18.125 25.3125 18.4375 25.5L27.0625 30L25.4375 20.4375Z" fill="white"/>
</svg>
