<svg width="48" height="48" viewBox="0 0 48 48" fill="none" xmlns="http://www.w3.org/2000/svg">
<path fill-rule="evenodd" clip-rule="evenodd" d="M24 10C17.6 10 13.6 13.1636 12 19.4909C14.4 16.3273 17.2 15.1409 20.4 15.9318C22.2258 16.3826 23.5307 17.6929 24.9751 19.142C27.328 21.5033 30.0516 24.2364 36 24.2364C42.4 24.2364 46.4 21.0727 48 14.7455C45.6 17.9091 42.8 19.0955 39.6 18.3045C37.7742 17.8537 36.4693 16.5435 35.0249 15.0943C32.672 12.733 29.9484 10 24 10ZM12 24.2364C5.6 24.2364 1.6 27.4 0 33.7273C2.4 30.5636 5.2 29.3773 8.4 30.1682C10.2258 30.6199 11.5307 31.9293 12.9751 33.3784C15.328 35.7397 18.0516 38.4727 24 38.4727C30.4 38.4727 34.4 35.3091 36 28.9818C33.6 32.1455 30.8 33.3318 27.6 32.5409C25.7742 32.0901 24.4693 30.7798 23.0249 29.3307C20.672 26.9694 17.9484 24.2364 12 24.2364Z" fill="white"/>
</svg>
