<svg width="40" height="32" viewBox="0 0 40 32" fill="none" xmlns="http://www.w3.org/2000/svg">
<path d="M39 15C39.5 15 40 15.5 40 16C40 16.5625 39.5 17 39 17H21V24.1875C22.6875 24.625 24 26.1875 24 28C24 30.25 22.1875 32 20 32C17.75 32 16 30.25 16 28C16 26.1875 17.25 24.625 19 24.1875V17H1C0.4375 17 0 16.5625 0 16C0 15.5 0.4375 15 1 15H7V7.875C5.25 7.4375 4 5.875 4 4C4 1.8125 5.75 0 8 0C10.1875 0 12 1.8125 12 4C12 5.875 10.6875 7.4375 9 7.875V15H31V7.875C29.25 7.4375 28 5.875 28 4C28 1.8125 29.75 0 32 0C34.1875 0 36 1.8125 36 4C36 5.875 34.6875 7.4375 33 7.875V15H39ZM30 4C30 5.125 30.875 6 32 6C33.0625 6 34 5.125 34 4C34 2.9375 33.0625 2 32 2C30.875 2 30 2.9375 30 4ZM6 4C6 5.125 6.875 6 8 6C9.0625 6 10 5.125 10 4C10 2.9375 9.0625 2 8 2C6.875 2 6 2.9375 6 4ZM22 28C22 26.9375 21.0625 26 20 26C18.875 26 18 26.9375 18 28C18 29.125 18.875 30 20 30C21.0625 30 22 29.125 22 28Z" fill="white"/>
</svg>
