<svg width="48" height="48" viewBox="0 0 48 48" fill="none" xmlns="http://www.w3.org/2000/svg">
<path fill-rule="evenodd" clip-rule="evenodd" d="M32.5291 8.9157C31.7317 13.8277 30.737 19.9553 29.0935 21.323C26.7751 23.2524 19.7815 23.8406 14.5862 23.9622C9.39098 24.0837 8.18322 25.2492 7 27.6747C7 27.6747 9.41544 28.9108 9.7722 30.3272C10.129 31.7436 10.4316 34.9236 8.8908 40.5303C8.48773 41.9972 8.91512 43.1554 9.6723 45.2073C9.96006 45.9871 10.2955 46.896 10.651 48H12.7722C12.7722 48 12.9613 43.4178 13.4178 41.5825C13.8744 39.7472 16.4041 36.4665 20.1972 36.2228C23.9905 35.9794 28.2681 36.2228 28.2681 36.2228C28.2681 36.2228 27.9454 38.5778 28.7525 40.9327C29.5596 43.2877 33.4951 48 33.4951 48H36.1777C36.1777 48 34.266 44.5941 34.266 40.5303C34.266 36.4665 39.6082 26.6762 39.6082 26.6762C39.6082 26.6762 37.7904 10.7598 38.5972 9.13572C39.4044 7.51157 40.7605 7.68611 40.7605 7.68611L41.41 5.96349C41.41 5.96349 38.399 4.70482 37.9593 3.29674C37.5197 1.88865 38.5972 0.00176317 38.5972 0.00176317C38.5972 0.00176317 34.4466 -0.206117 33.443 3.89255C33.1508 5.08585 32.8566 6.89824 32.5291 8.9157ZM18.6638 48C15.7518 45.3993 15.2036 40.2955 15.2036 40.2955C15.5318 39.5371 17.1223 38.1572 18.3916 37.7413C18.3916 37.7413 18.6638 45.1556 21.1593 48H18.6638Z" fill="white"/>
</svg>
