<svg width="35" height="41" viewBox="0 0 35 41" fill="none" xmlns="http://www.w3.org/2000/svg">
<path d="M30 18.5C32.7344 18.5 35 20.7656 35 23.5781V36.0781C35 38.8125 32.7344 41 30 41H5C2.1875 41 0 38.8125 0 36V23.5C0 20.7656 2.1875 18.5 5 18.5H7.5V11C7.5 5.0625 12.7344 0.296875 18.9062 1.15625C23.9062 1.85938 27.5 6.39062 27.5 11.3906V12.25C27.5 12.875 26.875 13.5 26.25 13.5C25.5469 13.5 25 12.9531 25 12.25V11C25 6.54688 21.0156 3.03125 16.4844 3.57812C12.6562 4.125 9.92188 7.48438 9.92188 11.3125L10 18.5H30ZM32.5 36V23.5C32.5 22.1719 31.3281 21 30 21H5C3.59375 21 2.5 22.1719 2.5 23.5V36C2.5 37.4062 3.59375 38.5 5 38.5H30C31.3281 38.5 32.5 37.4062 32.5 36Z" fill="white"/>
</svg>
