<svg width="36" height="24" viewBox="0 0 36 24" fill="none" xmlns="http://www.w3.org/2000/svg">
<path d="M34.875 2.25C35.5625 2.625 36 3.25 36 4V20C36 20.75 35.5625 21.4375 34.875 21.8125C34.625 21.9375 34.3125 22 34 22C33.5625 22 33.1875 21.9375 32.8125 21.6875L26.375 17.1875C25.9375 16.875 25.8125 16.25 26.125 15.75C26.4375 15.3125 27.0625 15.1875 27.5625 15.5L34 20V4L27.5625 8.5C27.0625 8.8125 26.4375 8.75 26.125 8.3125C25.8125 7.8125 25.9375 7.1875 26.375 6.875L32.8125 2.375C33.4375 1.9375 34.25 1.9375 34.875 2.25ZM20 0C22.1875 0 24 1.8125 24 4V20C24 22.25 22.1875 24 20 24H4C1.75 24 0 22.25 0 20V4C0 1.8125 1.75 0 4 0H20ZM22 20V4C22 2.9375 21.0625 2 20 2H4C2.875 2 2 2.9375 2 4V20C2 21.125 2.875 22 4 22H20C21.0625 22 22 21.125 22 20Z" fill="white"/>
</svg>
